<svg xmlns="http://www.w3.org/2000/svg" viewBox="0 0 640 360" preserveAspectRatio="xMidYMid slice" shape-rendering="crispEdges">

<g><rect x="20.00" y="16.00" width="2.00" height="2.00" fill="#FFFFFF"/>
<rect x="22.00" y="16.00" width="6.00" height="2.00" fill="#C9B8F0"/></g>
<g><rect x="276.00" y="128.00" width="28.00" height="6.00" fill="#DFD8F5"/>
<rect x="284.00" y="176.00" width="28.00" height="6.00" fill="#DFD8F5"/>
<rect x="292.00" y="224.00" width="28.00" height="6.00" fill="#DFD8F5"/></g>
<g><rect x="280.00" y="152.00" width="40.00" height="6.00" fill="#DFD8F5"/>
<rect x="288.00" y="200.00" width="40.00" height="6.00" fill="#DFD8F5"/></g>
<g><rect x="376.00" y="262.00" width="10.00" height="8.00" fill="#FFE9B0"/></g>
<g><rect x="364.00" y="248.00" width="6.00" height="6.00" fill="#FFD98A"/>
<rect x="358.00" y="242.00" width="18.00" height="18.00" fill="#FFC96B"/></g>
<g><rect x="352.00" y="236.00" width="30.00" height="30.00" fill="#FFB85C"/></g>
<g><rect x="60.00" y="0.00" width="6.00" height="6.00" fill="#C98AB0"/>
<rect x="156.00" y="104.00" width="4.00" height="4.00" fill="#C98AB0"/>
<rect x="252.00" y="48.00" width="2.00" height="2.00" fill="#C98AB0"/>
<rect x="348.00" y="152.00" width="6.00" height="6.00" fill="#C98AB0"/>
<rect x="444.00" y="96.00" width="4.00" height="4.00" fill="#C98AB0"/>
<rect x="540.00" y="40.00" width="2.00" height="2.00" fill="#C98AB0"/></g>
<g><rect x="84.00" y="26.00" width="4.00" height="4.00" fill="#D9A0C0"/>
<rect x="180.00" y="130.00" width="2.00" height="2.00" fill="#D9A0C0"/>
<rect x="276.00" y="74.00" width="6.00" height="6.00" fill="#D9A0C0"/>
<rect x="372.00" y="18.00" width="4.00" height="4.00" fill="#D9A0C0"/>
<rect x="468.00" y="122.00" width="2.00" height="2.00" fill="#D9A0C0"/>
<rect x="564.00" y="66.00" width="6.00" height="6.00" fill="#D9A0C0"/></g>
<g><rect x="108.00" y="52.00" width="2.00" height="2.00" fill="#B878A0"/>
<rect x="204.00" y="156.00" width="6.00" height="6.00" fill="#B878A0"/>
<rect x="300.00" y="100.00" width="4.00" height="4.00" fill="#B878A0"/>
<rect x="396.00" y="44.00" width="2.00" height="2.00" fill="#B878A0"/>
<rect x="492.00" y="148.00" width="6.00" height="6.00" fill="#B878A0"/>
<rect x="68.00" y="92.00" width="4.00" height="4.00" fill="#B878A0"/></g>
<g><rect x="132.00" y="78.00" width="6.00" height="6.00" fill="#E8B8D0"/>
<rect x="228.00" y="22.00" width="4.00" height="4.00" fill="#E8B8D0"/>
<rect x="324.00" y="126.00" width="2.00" height="2.00" fill="#E8B8D0"/>
<rect x="420.00" y="70.00" width="6.00" height="6.00" fill="#E8B8D0"/>
<rect x="516.00" y="14.00" width="4.00" height="4.00" fill="#E8B8D0"/>
<rect x="92.00" y="118.00" width="2.00" height="2.00" fill="#E8B8D0"/></g>
<g><rect x="60.00" y="0.00" width="8.00" height="8.00" fill="#D9A0C0"/>
<rect x="300.00" y="104.00" width="8.00" height="8.00" fill="#D9A0C0"/></g>
<g><rect x="120.00" y="26.00" width="6.00" height="6.00" fill="#C990B4"/>
<rect x="360.00" y="130.00" width="6.00" height="6.00" fill="#C990B4"/></g>
<g><rect x="180.00" y="52.00" width="8.00" height="8.00" fill="#D9A0C0"/>
<rect x="420.00" y="156.00" width="8.00" height="8.00" fill="#D9A0C0"/></g>
<g><rect x="240.00" y="78.00" width="6.00" height="6.00" fill="#C990B4"/>
<rect x="480.00" y="22.00" width="6.00" height="6.00" fill="#C990B4"/></g>
<g><rect x="240.00" y="192.00" width="4.00" height="4.00" fill="#F2E0A0"/></g>
<g><rect x="328.00" y="222.00" width="4.00" height="4.00" fill="#F2E0A0"/></g>
<g><rect x="416.00" y="208.00" width="4.00" height="4.00" fill="#F2E0A0"/></g>
<g><rect x="504.00" y="194.00" width="4.00" height="4.00" fill="#F2E0A0"/></g>
</svg>