<svg xmlns="http://www.w3.org/2000/svg" viewBox="0 0 320 180" shape-rendering="crispEdges">
<style>
    @keyframes beam { 0%, 100% { opacity: .45 } 50% { opacity: .9 } }
    @keyframes clockspin { from { transform: rotate(0deg) } to { transform: rotate(360deg) } }
    .beam { animation: beam 4s ease-in-out infinite }
    .clockspin { animation: clockspin 18s linear infinite; transform-origin: 55px 67px; transform-box: fill-box }
  </style>
<defs><linearGradient id="lg" x1="0" y1="0" x2="0" y2="1"><stop offset="0" stop-color="#A78BFA" stop-opacity="0.55"/><stop offset="1" stop-color="#7C5CE0" stop-opacity="0.3"/></linearGradient></defs><rect x="0" y="0" width="320" height="20" fill="#C9BCE8"/><rect x="0" y="20" width="320" height="20" fill="#C0B2E2"/><rect x="0" y="40" width="320" height="20" fill="#B09BD6"/><rect x="0" y="60" width="320" height="20" fill="#A68FC9"/><rect x="0" y="80" width="320" height="100" fill="#7E6BB0"/><rect x="0" y="80" width="320" height="4" fill="#8A77BC"/><g><rect x="118" y="24" width="84" height="90" fill="#4A3A78"/><rect x="122" y="28" width="76" height="82" fill="#B8A7F0"/><rect x="122" y="28" width="76" height="82" fill="url(#lg)"/><rect x="128" y="34" width="12" height="12" fill="#EADDFF"/><rect x="128" y="52" width="12" height="12" fill="#EADDFF"/><rect x="128" y="70" width="12" height="12" fill="#EADDFF"/><rect x="146" y="34" width="12" height="12" fill="#D9C9FF"/><rect x="146" y="52" width="12" height="12" fill="#D9C9FF"/><rect x="146" y="70" width="12" height="12" fill="#D9C9FF"/><rect x="164" y="34" width="12" height="12" fill="#C9B4FF"/><rect x="164" y="52" width="12" height="12" fill="#C9B4FF"/><rect x="164" y="70" width="12" height="12" fill="#C9B4FF"/><rect x="182" y="34" width="12" height="12" fill="#EADDFF"/><rect x="182" y="52" width="12" height="12" fill="#EADDFF"/><rect x="182" y="70" width="12" height="12" fill="#EADDFF"/><rect x="122" y="28" width="4" height="82" fill="#4A3A78"/><rect x="194" y="28" width="4" height="82" fill="#4A3A78"/><rect x="122" y="28" width="76" height="4" fill="#4A3A78"/><rect x="122" y="106" width="76" height="4" fill="#4A3A78"/><rect x="158" y="28" width="4" height="82" fill="#4A3A78"/><rect x="122" y="66" width="76" height="3" fill="#4A3A78"/></g><rect x="2" y="24" width="96" height="96" fill="#5C4A94"/><rect x="4" y="26" width="92" height="6" fill="#6F5CA8"/><rect x="6" y="34" width="4" height="13" fill="#C4B5FD"/><rect x="11" y="34" width="9" height="13" fill="#93C5FD"/><rect x="21" y="34" width="7" height="13" fill="#86EFAC"/><rect x="29" y="34" width="9" height="13" fill="#86EFAC"/><rect x="39" y="34" width="7" height="13" fill="#FDBA74"/><rect x="47" y="34" width="9" height="13" fill="#FDBA74"/><rect x="57" y="34" width="7" height="13" fill="#F0ABFC"/><rect x="65" y="34" width="9" height="13" fill="#F0ABFC"/><rect x="75" y="34" width="7" height="13" fill="#93C5FD"/><rect x="83" y="34" width="9" height="13" fill="#93C5FD"/><rect x="4" y="47" width="92" height="3" fill="#4A3A78"/><rect x="6" y="52" width="4" height="13" fill="#FDBA74"/><rect x="11" y="52" width="9" height="13" fill="#FCA5A5"/><rect x="21" y="52" width="7" height="13" fill="#C4B5FD"/><rect x="29" y="52" width="9" height="13" fill="#C4B5FD"/><rect x="39" y="52" width="7" height="13" fill="#A78BFA"/><rect x="47" y="52" width="9" height="13" fill="#A78BFA"/><rect x="57" y="52" width="7" height="13" fill="#FDE68A"/><rect x="65" y="52" width="9" height="13" fill="#FDE68A"/><rect x="75" y="52" width="7" height="13" fill="#FCA5A5"/><rect x="83" y="52" width="9" height="13" fill="#FCA5A5"/><rect x="4" y="65" width="92" height="3" fill="#4A3A78"/><rect x="6" y="70" width="4" height="13" fill="#A78BFA"/><rect x="11" y="70" width="9" height="13" fill="#86EFAC"/><rect x="21" y="70" width="7" height="13" fill="#FDBA74"/><rect x="29" y="70" width="9" height="13" fill="#FDBA74"/><rect x="39" y="70" width="7" height="13" fill="#F0ABFC"/><rect x="47" y="70" width="9" height="13" fill="#F0ABFC"/><rect x="57" y="70" width="7" height="13" fill="#93C5FD"/><rect x="65" y="70" width="9" height="13" fill="#93C5FD"/><rect x="75" y="70" width="7" height="13" fill="#86EFAC"/><rect x="83" y="70" width="9" height="13" fill="#86EFAC"/><rect x="4" y="83" width="92" height="3" fill="#4A3A78"/><rect x="6" y="88" width="4" height="13" fill="#F0ABFC"/><rect x="11" y="88" width="9" height="13" fill="#C4B5FD"/><rect x="21" y="88" width="7" height="13" fill="#A78BFA"/><rect x="29" y="88" width="9" height="13" fill="#A78BFA"/><rect x="39" y="88" width="7" height="13" fill="#FDE68A"/><rect x="47" y="88" width="9" height="13" fill="#FDE68A"/><rect x="57" y="88" width="7" height="13" fill="#FCA5A5"/><rect x="65" y="88" width="9" height="13" fill="#FCA5A5"/><rect x="75" y="88" width="7" height="13" fill="#C4B5FD"/><rect x="83" y="88" width="9" height="13" fill="#C4B5FD"/><rect x="4" y="101" width="92" height="3" fill="#4A3A78"/><rect x="6" y="106" width="4" height="13" fill="#FDE68A"/><rect x="11" y="106" width="9" height="13" fill="#FDBA74"/><rect x="21" y="106" width="7" height="13" fill="#F0ABFC"/><rect x="29" y="106" width="9" height="13" fill="#F0ABFC"/><rect x="39" y="106" width="7" height="13" fill="#93C5FD"/><rect x="47" y="106" width="9" height="13" fill="#93C5FD"/><rect x="57" y="106" width="7" height="13" fill="#86EFAC"/><rect x="65" y="106" width="9" height="13" fill="#86EFAC"/><rect x="75" y="106" width="7" height="13" fill="#FDBA74"/><rect x="83" y="106" width="9" height="13" fill="#FDBA74"/><rect x="4" y="119" width="92" height="3" fill="#4A3A78"/><rect x="98" y="24" width="2" height="96" fill="#4A3A78"/><rect x="222" y="24" width="96" height="96" fill="#5C4A94"/><rect x="224" y="26" width="92" height="6" fill="#6F5CA8"/><rect x="226" y="34" width="8" height="13" fill="#FDE68A"/><rect x="235" y="34" width="5" height="13" fill="#93C5FD"/><rect x="241" y="34" width="5" height="13" fill="#F0ABFC"/><rect x="247" y="34" width="5" height="13" fill="#FDBA74"/><rect x="253" y="34" width="5" height="13" fill="#86EFAC"/><rect x="259" y="34" width="5" height="13" fill="#93C5FD"/><rect x="265" y="34" width="5" height="13" fill="#F0ABFC"/><rect x="271" y="34" width="5" height="13" fill="#FDBA74"/><rect x="277" y="34" width="5" height="13" fill="#86EFAC"/><rect x="283" y="34" width="5" height="13" fill="#93C5FD"/><rect x="289" y="34" width="5" height="13" fill="#F0ABFC"/><rect x="295" y="34" width="5" height="13" fill="#FDBA74"/><rect x="301" y="34" width="5" height="13" fill="#86EFAC"/><rect x="307" y="34" width="5" height="13" fill="#93C5FD"/><rect x="224" y="47" width="92" height="3" fill="#4A3A78"/><rect x="226" y="52" width="8" height="13" fill="#93C5FD"/><rect x="235" y="52" width="5" height="13" fill="#FCA5A5"/><rect x="241" y="52" width="5" height="13" fill="#FDE68A"/><rect x="247" y="52" width="5" height="13" fill="#A78BFA"/><rect x="253" y="52" width="5" height="13" fill="#C4B5FD"/><rect x="259" y="52" width="5" height="13" fill="#FCA5A5"/><rect x="265" y="52" width="5" height="13" fill="#FDE68A"/><rect x="271" y="52" width="5" height="13" fill="#A78BFA"/><rect x="277" y="52" width="5" height="13" fill="#C4B5FD"/><rect x="283" y="52" width="5" height="13" fill="#FCA5A5"/><rect x="289" y="52" width="5" height="13" fill="#FDE68A"/><rect x="295" y="52" width="5" height="13" fill="#A78BFA"/><rect x="301" y="52" width="5" height="13" fill="#C4B5FD"/><rect x="307" y="52" width="5" height="13" fill="#FCA5A5"/><rect x="224" y="65" width="92" height="3" fill="#4A3A78"/><rect x="226" y="70" width="8" height="13" fill="#FCA5A5"/><rect x="235" y="70" width="5" height="13" fill="#86EFAC"/><rect x="241" y="70" width="5" height="13" fill="#93C5FD"/><rect x="247" y="70" width="5" height="13" fill="#F0ABFC"/><rect x="253" y="70" width="5" height="13" fill="#FDBA74"/><rect x="259" y="70" width="5" height="13" fill="#86EFAC"/><rect x="265" y="70" width="5" height="13" fill="#93C5FD"/><rect x="271" y="70" width="5" height="13" fill="#F0ABFC"/><rect x="277" y="70" width="5" height="13" fill="#FDBA74"/><rect x="283" y="70" width="5" height="13" fill="#86EFAC"/><rect x="289" y="70" width="5" height="13" fill="#93C5FD"/><rect x="295" y="70" width="5" height="13" fill="#F0ABFC"/><rect x="301" y="70" width="5" height="13" fill="#FDBA74"/><rect x="307" y="70" width="5" height="13" fill="#86EFAC"/><rect x="224" y="83" width="92" height="3" fill="#4A3A78"/><rect x="226" y="88" width="8" height="13" fill="#86EFAC"/><rect x="235" y="88" width="5" height="13" fill="#C4B5FD"/><rect x="241" y="88" width="5" height="13" fill="#FCA5A5"/><rect x="247" y="88" width="5" height="13" fill="#FDE68A"/><rect x="253" y="88" width="5" height="13" fill="#A78BFA"/><rect x="259" y="88" width="5" height="13" fill="#C4B5FD"/><rect x="265" y="88" width="5" height="13" fill="#FCA5A5"/><rect x="271" y="88" width="5" height="13" fill="#FDE68A"/><rect x="277" y="88" width="5" height="13" fill="#A78BFA"/><rect x="283" y="88" width="5" height="13" fill="#C4B5FD"/><rect x="289" y="88" width="5" height="13" fill="#FCA5A5"/><rect x="295" y="88" width="5" height="13" fill="#FDE68A"/><rect x="301" y="88" width="5" height="13" fill="#A78BFA"/><rect x="307" y="88" width="5" height="13" fill="#C4B5FD"/><rect x="224" y="101" width="92" height="3" fill="#4A3A78"/><rect x="226" y="106" width="8" height="13" fill="#C4B5FD"/><rect x="235" y="106" width="5" height="13" fill="#FDBA74"/><rect x="241" y="106" width="5" height="13" fill="#86EFAC"/><rect x="247" y="106" width="5" height="13" fill="#93C5FD"/><rect x="253" y="106" width="5" height="13" fill="#F0ABFC"/><rect x="259" y="106" width="5" height="13" fill="#FDBA74"/><rect x="265" y="106" width="5" height="13" fill="#86EFAC"/><rect x="271" y="106" width="5" height="13" fill="#93C5FD"/><rect x="277" y="106" width="5" height="13" fill="#F0ABFC"/><rect x="283" y="106" width="5" height="13" fill="#FDBA74"/><rect x="289" y="106" width="5" height="13" fill="#86EFAC"/><rect x="295" y="106" width="5" height="13" fill="#93C5FD"/><rect x="301" y="106" width="5" height="13" fill="#F0ABFC"/><rect x="307" y="106" width="5" height="13" fill="#FDBA74"/><rect x="224" y="119" width="92" height="3" fill="#4A3A78"/><rect x="318" y="24" width="2" height="96" fill="#4A3A78"/><g class="beam"><rect x="132" y="110" width="56" height="54" fill="#B9A6F5" opacity="0.34"/><rect x="152" y="110" width="22" height="54" fill="#C9B9F7" opacity="0.4"/></g><rect x="126" y="150" width="68" height="10" fill="#D9CCF8" opacity="0.3" class="beam"/><g><rect x="96" y="148" width="128" height="6" fill="#6F5CA8"/><rect x="100" y="154" width="4" height="16" fill="#5C4A94"/><rect x="216" y="154" width="4" height="16" fill="#5C4A94"/><rect x="132" y="128" width="28" height="20" fill="#9B8AD0"/><rect x="134" y="130" width="10" height="18" fill="#F3EDFF"/><rect x="148" y="130" width="10" height="18" fill="#F3EDFF"/><rect x="130" y="126" width="32" height="2" fill="#5C4A94"/><rect x="170" y="132" width="14" height="4" fill="#8A77BC"/></g><g class="clockspin"><rect x="48" y="60" width="14" height="14" fill="#4A3A78"/><rect x="50" y="62" width="10" height="10" fill="#F3EDFF"/><rect x="54" y="64" width="2" height="5" fill="#4A3A78"/></g>
</svg>