<svg xmlns="http://www.w3.org/2000/svg" viewBox="0 0 320 180" shape-rendering="crispEdges">
<style>
    @keyframes s1 { from { transform: translateX(0) } to { transform: translateX(-36px) } }
    @keyframes s2 { from { transform: translateX(-30px) } to { transform: translateX(8px) } }
    @keyframes f1 { from { transform: translateX(0); opacity: .4 } 50% { opacity: .9 } to { transform: translateX(-36px); opacity: .4 } }
    @keyframes f2 { from { transform: translateX(-30px); opacity: .7 } 50% { opacity: .35 } to { transform: translateX(8px); opacity: .7 } }
    @keyframes lantern { 0%, 100% { opacity: 1 } 50% { opacity: .35 } }
    @keyframes sweep { from { transform: rotate(0deg) } to { transform: rotate(360deg) } }
    @keyframes mp0 { 0%, 100% { opacity: .3 } 25% { opacity: .55 } 50% { opacity: .8 } 75% { opacity: .5 } }
    @keyframes mp1 { 0%, 100% { opacity: .7 } 25% { opacity: .45 } 50% { opacity: .25 } 75% { opacity: .5 } }
    @keyframes warm { 0%, 100% { opacity: .5 } 50% { opacity: 1 } }
    @keyframes tw0 { 0%, 55% { opacity: 1 } 56%, 100% { opacity: .2 } }
    @keyframes tw1 { 0%, 40% { opacity: .2 } 41%, 100% { opacity: 1 } }
    @keyframes tw2 { 0%, 65% { opacity: 1 } 66%, 100% { opacity: .25 } }
    @keyframes jelly0 { 0% { transform: translate(0, 0); opacity: .5 } 25% { transform: translate(0, -7px); opacity: .8 } 50% { transform: translate(0, -14px); opacity: 1 } 75% { transform: translate(0, -7px); opacity: .75 } 100% { transform: translate(0, 0); opacity: .5 } }
    @keyframes jelly1 { 0% { transform: translate(0, 0); opacity: .7 } 25% { transform: translate(0, -5px); opacity: .5 } 50% { transform: translate(0, -10px); opacity: .35 } 75% { transform: translate(0, -5px); opacity: .55 } 100% { transform: translate(0, 0); opacity: .7 } }
    @keyframes jelly2 { 0% { transform: translate(0, 0); opacity: .4 } 25% { transform: translate(0, -8px); opacity: .75 } 50% { transform: translate(0, -16px); opacity: 1 } 75% { transform: translate(0, -8px); opacity: .7 } 100% { transform: translate(0, 0); opacity: .4 } }
    @keyframes jglow { 0%, 100% { opacity: .4 } 50% { opacity: .95 } }
    .s1 { animation: s1 10s linear infinite }
    .s2 { animation: s2 12s linear infinite }
    .f1 { animation: f1 10s linear infinite }
    .f2 { animation: f2 12s linear infinite }
    .lantern { animation: lantern 1.8s steps(1) infinite }
    .sweep { animation: sweep 8s linear infinite; transform-origin: 32px 99px; transform-box: fill-box }
    .mp0 { animation: mp0 3.4s ease-in-out infinite }
    .mp1 { animation: mp1 4.2s ease-in-out infinite }
    .warm { animation: warm 2.6s ease-in-out infinite }
    .tw0 { animation: tw0 2.4s steps(1) infinite }
    .tw1 { animation: tw1 3s steps(1) infinite }
    .tw2 { animation: tw2 2s steps(1) infinite }
    .jelly0 { animation: jelly0 7s ease-in-out infinite }
    .jelly1 { animation: jelly1 8.5s ease-in-out infinite 1.5s }
    .jelly2 { animation: jelly2 6.5s ease-in-out infinite 3s }
    .jglow { animation: jglow 2.4s ease-in-out infinite }
    .moonp { animation: lantern 6s ease-in-out infinite }
  </style>
<rect x="0" y="0" width="320" height="18" fill="#050F1D"/><rect x="0" y="18" width="320" height="18" fill="#081A2C"/><rect x="0" y="36" width="320" height="18" fill="#0A1E31"/><rect x="0" y="54" width="320" height="18" fill="#0D2540"/><circle cx="252" cy="40" r="10" fill="#E8F2FF" class="moonp"/><circle cx="252" cy="40" r="14" fill="#E8F2FF" opacity="0.16" class="moonp"/><circle cx="252" cy="40" r="19" fill="#E8F2FF" opacity="0.07" class="moonp"/><rect x="249" y="37" width="2" height="2" fill="#D2E2F7"/><rect x="255" y="42" width="2" height="2" fill="#D2E2F7"/><rect x="250" y="45" width="1" height="1" fill="#D2E2F7"/><rect x="0" y="68" width="320" height="20" class="s1" fill="#0E2F52"/><rect x="0" y="88" width="320" height="18" class="s2" fill="#0C2848"/><rect x="0" y="106" width="320" height="17" class="s1" fill="#0A2140"/><rect x="0" y="123" width="320" height="15" class="s2" fill="#081C38"/><rect x="0" y="138" width="320" height="13" class="s1" fill="#071830"/><g class="mpath"><rect x="146" y="72" width="10" height="3" class="mp0" fill="#DFEEFF"/><rect x="148" y="83" width="16" height="3" class="mp1" fill="#DFEEFF"/><rect x="150" y="94" width="10" height="3" class="mp0" fill="#DFEEFF"/><rect x="152" y="105" width="16" height="3" class="mp1" fill="#DFEEFF"/><rect x="154" y="116" width="10" height="3" class="mp0" fill="#DFEEFF"/><rect x="156" y="127" width="16" height="3" class="mp1" fill="#DFEEFF"/><rect x="158" y="138" width="10" height="3" class="mp0" fill="#DFEEFF"/>
    <rect x="140" y="78" width="3" height="1" class="mp1" fill="#BFD8F2"/><rect x="146" y="92" width="3" height="1" class="mp0" fill="#BFD8F2"/><rect x="152" y="106" width="3" height="1" class="mp1" fill="#BFD8F2"/><rect x="158" y="120" width="3" height="1" class="mp0" fill="#BFD8F2"/></g><rect x="0" y="68" width="3" height="2" class="f1" fill="#D9EFFF"/><rect x="8" y="68" width="6" height="2" class="f1" fill="#D9EFFF"/><rect x="18" y="68" width="6" height="2" class="f1" fill="#D9EFFF"/><rect x="26" y="68" width="4" height="2" class="f1" fill="#D9EFFF"/><rect x="36" y="68" width="4" height="2" class="f1" fill="#D9EFFF"/><rect x="44" y="68" width="7" height="2" class="f1" fill="#D9EFFF"/><rect x="54" y="68" width="7" height="2" class="f1" fill="#D9EFFF"/><rect x="62" y="68" width="5" height="2" class="f1" fill="#D9EFFF"/><rect x="72" y="68" width="5" height="2" class="f1" fill="#D9EFFF"/><rect x="80" y="68" width="3" height="2" class="f1" fill="#D9EFFF"/><rect x="90" y="68" width="3" height="2" class="f1" fill="#D9EFFF"/><rect x="98" y="68" width="6" height="2" class="f1" fill="#D9EFFF"/><rect x="108" y="68" width="6" height="2" class="f1" fill="#D9EFFF"/><rect x="116" y="68" width="4" height="2" class="f1" fill="#D9EFFF"/><rect x="126" y="68" width="4" height="2" class="f1" fill="#D9EFFF"/><rect x="134" y="68" width="7" height="2" class="f1" fill="#D9EFFF"/><rect x="144" y="68" width="7" height="2" class="f1" fill="#D9EFFF"/><rect x="152" y="68" width="5" height="2" class="f1" fill="#D9EFFF"/><rect x="162" y="68" width="5" height="2" class="f1" fill="#D9EFFF"/><rect x="170" y="68" width="3" height="2" class="f1" fill="#D9EFFF"/><rect x="180" y="68" width="3" height="2" class="f1" fill="#D9EFFF"/><rect x="188" y="68" width="6" height="2" class="f1" fill="#D9EFFF"/><rect x="198" y="68" width="6" height="2" class="f1" fill="#D9EFFF"/><rect x="206" y="68" width="4" height="2" class="f1" fill="#D9EFFF"/><rect x="216" y="68" width="4" height="2" class="f1" fill="#D9EFFF"/><rect x="224" y="68" width="7" height="2" class="f1" fill="#D9EFFF"/><rect x="234" y="68" width="7" height="2" class="f1" fill="#D9EFFF"/><rect x="242" y="68" width="5" height="2" class="f1" fill="#D9EFFF"/><rect x="252" y="68" width="5" height="2" class="f1" fill="#D9EFFF"/><rect x="260" y="68" width="3" height="2" class="f1" fill="#D9EFFF"/><rect x="270" y="68" width="3" height="2" class="f1" fill="#D9EFFF"/><rect x="278" y="68" width="6" height="2" class="f1" fill="#D9EFFF"/><rect x="288" y="68" width="6" height="2" class="f1" fill="#D9EFFF"/><rect x="296" y="68" width="4" height="2" class="f1" fill="#D9EFFF"/><rect x="306" y="68" width="4" height="2" class="f1" fill="#D9EFFF"/><rect x="0" y="88" width="3" height="2" class="f2" fill="#D9EFFF"/><rect x="8" y="88" width="6" height="2" class="f2" fill="#D9EFFF"/><rect x="18" y="88" width="6" height="2" class="f2" fill="#D9EFFF"/><rect x="26" y="88" width="4" height="2" class="f2" fill="#D9EFFF"/><rect x="36" y="88" width="4" height="2" class="f2" fill="#D9EFFF"/><rect x="44" y="88" width="7" height="2" class="f2" fill="#D9EFFF"/><rect x="54" y="88" width="7" height="2" class="f2" fill="#D9EFFF"/><rect x="62" y="88" width="5" height="2" class="f2" fill="#D9EFFF"/><rect x="72" y="88" width="5" height="2" class="f2" fill="#D9EFFF"/><rect x="80" y="88" width="3" height="2" class="f2" fill="#D9EFFF"/><rect x="90" y="88" width="3" height="2" class="f2" fill="#D9EFFF"/><rect x="98" y="88" width="6" height="2" class="f2" fill="#D9EFFF"/><rect x="108" y="88" width="6" height="2" class="f2" fill="#D9EFFF"/><rect x="116" y="88" width="4" height="2" class="f2" fill="#D9EFFF"/><rect x="126" y="88" width="4" height="2" class="f2" fill="#D9EFFF"/><rect x="134" y="88" width="7" height="2" class="f2" fill="#D9EFFF"/><rect x="144" y="88" width="7" height="2" class="f2" fill="#D9EFFF"/><rect x="152" y="88" width="5" height="2" class="f2" fill="#D9EFFF"/><rect x="162" y="88" width="5" height="2" class="f2" fill="#D9EFFF"/><rect x="170" y="88" width="3" height="2" class="f2" fill="#D9EFFF"/><rect x="180" y="88" width="3" height="2" class="f2" fill="#D9EFFF"/><rect x="188" y="88" width="6" height="2" class="f2" fill="#D9EFFF"/><rect x="198" y="88" width="6" height="2" class="f2" fill="#D9EFFF"/><rect x="206" y="88" width="4" height="2" class="f2" fill="#D9EFFF"/><rect x="216" y="88" width="4" height="2" class="f2" fill="#D9EFFF"/><rect x="224" y="88" width="7" height="2" class="f2" fill="#D9EFFF"/><rect x="234" y="88" width="7" height="2" class="f2" fill="#D9EFFF"/><rect x="242" y="88" width="5" height="2" class="f2" fill="#D9EFFF"/><rect x="252" y="88" width="5" height="2" class="f2" fill="#D9EFFF"/><rect x="260" y="88" width="3" height="2" class="f2" fill="#D9EFFF"/><rect x="270" y="88" width="3" height="2" class="f2" fill="#D9EFFF"/><rect x="278" y="88" width="6" height="2" class="f2" fill="#D9EFFF"/><rect x="288" y="88" width="6" height="2" class="f2" fill="#D9EFFF"/><rect x="296" y="88" width="4" height="2" class="f2" fill="#D9EFFF"/><rect x="306" y="88" width="4" height="2" class="f2" fill="#D9EFFF"/><rect x="0" y="106" width="3" height="2" class="f1" fill="#D9EFFF"/><rect x="8" y="106" width="6" height="2" class="f1" fill="#D9EFFF"/><rect x="18" y="106" width="6" height="2" class="f1" fill="#D9EFFF"/><rect x="26" y="106" width="4" height="2" class="f1" fill="#D9EFFF"/><rect x="36" y="106" width="4" height="2" class="f1" fill="#D9EFFF"/><rect x="44" y="106" width="7" height="2" class="f1" fill="#D9EFFF"/><rect x="54" y="106" width="7" height="2" class="f1" fill="#D9EFFF"/><rect x="62" y="106" width="5" height="2" class="f1" fill="#D9EFFF"/><rect x="72" y="106" width="5" height="2" class="f1" fill="#D9EFFF"/><rect x="80" y="106" width="3" height="2" class="f1" fill="#D9EFFF"/><rect x="90" y="106" width="3" height="2" class="f1" fill="#D9EFFF"/><rect x="98" y="106" width="6" height="2" class="f1" fill="#D9EFFF"/><rect x="108" y="106" width="6" height="2" class="f1" fill="#D9EFFF"/><rect x="116" y="106" width="4" height="2" class="f1" fill="#D9EFFF"/><rect x="126" y="106" width="4" height="2" class="f1" fill="#D9EFFF"/><rect x="134" y="106" width="7" height="2" class="f1" fill="#D9EFFF"/><rect x="144" y="106" width="7" height="2" class="f1" fill="#D9EFFF"/><rect x="152" y="106" width="5" height="2" class="f1" fill="#D9EFFF"/><rect x="162" y="106" width="5" height="2" class="f1" fill="#D9EFFF"/><rect x="170" y="106" width="3" height="2" class="f1" fill="#D9EFFF"/><rect x="180" y="106" width="3" height="2" class="f1" fill="#D9EFFF"/><rect x="188" y="106" width="6" height="2" class="f1" fill="#D9EFFF"/><rect x="198" y="106" width="6" height="2" class="f1" fill="#D9EFFF"/><rect x="206" y="106" width="4" height="2" class="f1" fill="#D9EFFF"/><rect x="216" y="106" width="4" height="2" class="f1" fill="#D9EFFF"/><rect x="224" y="106" width="7" height="2" class="f1" fill="#D9EFFF"/><rect x="234" y="106" width="7" height="2" class="f1" fill="#D9EFFF"/><rect x="242" y="106" width="5" height="2" class="f1" fill="#D9EFFF"/><rect x="252" y="106" width="5" height="2" class="f1" fill="#D9EFFF"/><rect x="260" y="106" width="3" height="2" class="f1" fill="#D9EFFF"/><rect x="270" y="106" width="3" height="2" class="f1" fill="#D9EFFF"/><rect x="278" y="106" width="6" height="2" class="f1" fill="#D9EFFF"/><rect x="288" y="106" width="6" height="2" class="f1" fill="#D9EFFF"/><rect x="296" y="106" width="4" height="2" class="f1" fill="#D9EFFF"/><rect x="306" y="106" width="4" height="2" class="f1" fill="#D9EFFF"/><rect x="0" y="123" width="3" height="2" class="f2" fill="#D9EFFF"/><rect x="8" y="123" width="6" height="2" class="f2" fill="#D9EFFF"/><rect x="18" y="123" width="6" height="2" class="f2" fill="#D9EFFF"/><rect x="26" y="123" width="4" height="2" class="f2" fill="#D9EFFF"/><rect x="36" y="123" width="4" height="2" class="f2" fill="#D9EFFF"/><rect x="44" y="123" width="7" height="2" class="f2" fill="#D9EFFF"/><rect x="54" y="123" width="7" height="2" class="f2" fill="#D9EFFF"/><rect x="62" y="123" width="5" height="2" class="f2" fill="#D9EFFF"/><rect x="72" y="123" width="5" height="2" class="f2" fill="#D9EFFF"/><rect x="80" y="123" width="3" height="2" class="f2" fill="#D9EFFF"/><rect x="90" y="123" width="3" height="2" class="f2" fill="#D9EFFF"/><rect x="98" y="123" width="6" height="2" class="f2" fill="#D9EFFF"/><rect x="108" y="123" width="6" height="2" class="f2" fill="#D9EFFF"/><rect x="116" y="123" width="4" height="2" class="f2" fill="#D9EFFF"/><rect x="126" y="123" width="4" height="2" class="f2" fill="#D9EFFF"/><rect x="134" y="123" width="7" height="2" class="f2" fill="#D9EFFF"/><rect x="144" y="123" width="7" height="2" class="f2" fill="#D9EFFF"/><rect x="152" y="123" width="5" height="2" class="f2" fill="#D9EFFF"/><rect x="162" y="123" width="5" height="2" class="f2" fill="#D9EFFF"/><rect x="170" y="123" width="3" height="2" class="f2" fill="#D9EFFF"/><rect x="180" y="123" width="3" height="2" class="f2" fill="#D9EFFF"/><rect x="188" y="123" width="6" height="2" class="f2" fill="#D9EFFF"/><rect x="198" y="123" width="6" height="2" class="f2" fill="#D9EFFF"/><rect x="206" y="123" width="4" height="2" class="f2" fill="#D9EFFF"/><rect x="216" y="123" width="4" height="2" class="f2" fill="#D9EFFF"/><rect x="224" y="123" width="7" height="2" class="f2" fill="#D9EFFF"/><rect x="234" y="123" width="7" height="2" class="f2" fill="#D9EFFF"/><rect x="242" y="123" width="5" height="2" class="f2" fill="#D9EFFF"/><rect x="252" y="123" width="5" height="2" class="f2" fill="#D9EFFF"/><rect x="260" y="123" width="3" height="2" class="f2" fill="#D9EFFF"/><rect x="270" y="123" width="3" height="2" class="f2" fill="#D9EFFF"/><rect x="278" y="123" width="6" height="2" class="f2" fill="#D9EFFF"/><rect x="288" y="123" width="6" height="2" class="f2" fill="#D9EFFF"/><rect x="296" y="123" width="4" height="2" class="f2" fill="#D9EFFF"/><rect x="306" y="123" width="4" height="2" class="f2" fill="#D9EFFF"/><rect x="0" y="138" width="3" height="2" class="f1" fill="#D9EFFF"/><rect x="8" y="138" width="6" height="2" class="f1" fill="#D9EFFF"/><rect x="18" y="138" width="6" height="2" class="f1" fill="#D9EFFF"/><rect x="26" y="138" width="4" height="2" class="f1" fill="#D9EFFF"/><rect x="36" y="138" width="4" height="2" class="f1" fill="#D9EFFF"/><rect x="44" y="138" width="7" height="2" class="f1" fill="#D9EFFF"/><rect x="54" y="138" width="7" height="2" class="f1" fill="#D9EFFF"/><rect x="62" y="138" width="5" height="2" class="f1" fill="#D9EFFF"/><rect x="72" y="138" width="5" height="2" class="f1" fill="#D9EFFF"/><rect x="80" y="138" width="3" height="2" class="f1" fill="#D9EFFF"/><rect x="90" y="138" width="3" height="2" class="f1" fill="#D9EFFF"/><rect x="98" y="138" width="6" height="2" class="f1" fill="#D9EFFF"/><rect x="108" y="138" width="6" height="2" class="f1" fill="#D9EFFF"/><rect x="116" y="138" width="4" height="2" class="f1" fill="#D9EFFF"/><rect x="126" y="138" width="4" height="2" class="f1" fill="#D9EFFF"/><rect x="134" y="138" width="7" height="2" class="f1" fill="#D9EFFF"/><rect x="144" y="138" width="7" height="2" class="f1" fill="#D9EFFF"/><rect x="152" y="138" width="5" height="2" class="f1" fill="#D9EFFF"/><rect x="162" y="138" width="5" height="2" class="f1" fill="#D9EFFF"/><rect x="170" y="138" width="3" height="2" class="f1" fill="#D9EFFF"/><rect x="180" y="138" width="3" height="2" class="f1" fill="#D9EFFF"/><rect x="188" y="138" width="6" height="2" class="f1" fill="#D9EFFF"/><rect x="198" y="138" width="6" height="2" class="f1" fill="#D9EFFF"/><rect x="206" y="138" width="4" height="2" class="f1" fill="#D9EFFF"/><rect x="216" y="138" width="4" height="2" class="f1" fill="#D9EFFF"/><rect x="224" y="138" width="7" height="2" class="f1" fill="#D9EFFF"/><rect x="234" y="138" width="7" height="2" class="f1" fill="#D9EFFF"/><rect x="242" y="138" width="5" height="2" class="f1" fill="#D9EFFF"/><rect x="252" y="138" width="5" height="2" class="f1" fill="#D9EFFF"/><rect x="260" y="138" width="3" height="2" class="f1" fill="#D9EFFF"/><rect x="270" y="138" width="3" height="2" class="f1" fill="#D9EFFF"/><rect x="278" y="138" width="6" height="2" class="f1" fill="#D9EFFF"/><rect x="288" y="138" width="6" height="2" class="f1" fill="#D9EFFF"/><rect x="296" y="138" width="4" height="2" class="f1" fill="#D9EFFF"/><rect x="306" y="138" width="4" height="2" class="f1" fill="#D9EFFF"/><rect x="190" y="122" width="10" height="2" fill="#0E1E34"/><rect x="194" y="116" width="4" height="6" fill="#0E1E34"/><rect x="192" y="118" width="2" height="4" fill="#1E3A5F"/><rect x="195" y="118" width="1" height="1" class="warm" fill="#FFD98A"/><g><rect x="22" y="88" width="22" height="52" fill="#202C44"/><rect x="24" y="90" width="18" height="46" fill="#E8E3DA"/><rect x="24" y="96" width="18" height="7" fill="#C0392B"/><rect x="24" y="108" width="18" height="7" fill="#C0392B"/><rect x="24" y="120" width="18" height="7" fill="#C0392B"/><rect x="26" y="92" width="14" height="4" fill="#202C44"/><rect x="30" y="86" width="6" height="6" fill="#202C44"/><rect x="30" y="88" width="4" height="3" fill="#C0392B"/><rect x="30" y="100" width="6" height="3" class="lantern" fill="#FFE98A"/><rect x="32" y="118" width="4" height="4" fill="#202C44"/><rect x="24" y="128" width="18" height="2" fill="#202C44"/><rect x="30" y="103" width="2" height="2" class="lantern" fill="#FFFFFF"/><g class="sweep"><rect x="32" y="98" width="34" height="3" fill="#FFE98A" opacity="0.45"/><rect x="32" y="100" width="26" height="2" fill="#FFE98A" opacity="0.3"/></g></g><g class="jelly0"><rect x="258" y="90" width="6" height="3" class="jglow" fill="#8FD9E8"/><rect x="259" y="91" width="4" height="2" fill="#D9F4FF"/><rect x="258" y="93" width="6" height="2" fill="#B8E6F5"/><rect x="259" y="95" width="1" height="3" fill="#B8E6F5"/><rect x="261" y="95" width="1" height="3" fill="#B8E6F5"/><rect x="263" y="95" width="1" height="2" fill="#B8E6F5"/></g><g class="jelly1"><rect x="272" y="110" width="6" height="3" class="jglow" fill="#8FD9E8"/><rect x="273" y="111" width="4" height="2" fill="#D9F4FF"/><rect x="272" y="113" width="6" height="2" fill="#B8E6F5"/><rect x="273" y="115" width="1" height="3" fill="#B8E6F5"/><rect x="275" y="115" width="1" height="3" fill="#B8E6F5"/><rect x="277" y="115" width="1" height="2" fill="#B8E6F5"/></g><g class="jelly2"><rect x="38" y="86" width="6" height="3" class="jglow" fill="#8FD9E8"/><rect x="39" y="87" width="4" height="2" fill="#D9F4FF"/><rect x="38" y="89" width="6" height="2" fill="#B8E6F5"/><rect x="39" y="91" width="1" height="3" fill="#B8E6F5"/><rect x="41" y="91" width="1" height="3" fill="#B8E6F5"/><rect x="43" y="91" width="1" height="2" fill="#B8E6F5"/></g><rect x="2" y="150" width="44" height="30" fill="#0B1826"/><rect x="0" y="156" width="6" height="24" fill="#08121E"/><rect x="42" y="158" width="6" height="22" fill="#08121E"/><rect x="6" y="148" width="30" height="3" fill="#101F30"/><rect x="12" y="146" width="8" height="2" fill="#0B1826"/>
</svg>