<svg xmlns="http://www.w3.org/2000/svg" viewBox="0 0 320 180" shape-rendering="crispEdges">
<style>
    @keyframes s1 { from { transform: translateX(0) } to { transform: translateX(-40px) } }
    @keyframes s2 { from { transform: translateX(-34px) } to { transform: translateX(8px) } }
    @keyframes f1 { from { transform: translateX(0); opacity: .95 } 50% { opacity: .6 } to { transform: translateX(-40px); opacity: .95 } }
    @keyframes f2 { from { transform: translateX(-34px); opacity: .75 } 50% { opacity: 1 } to { transform: translateX(8px); opacity: .75 } }
    @keyframes boat { 0% { transform: rotate(-2.5deg) translateY(0) } 25% { transform: rotate(-1deg) translateY(1px) } 50% { transform: rotate(2.5deg) translateY(1px) } 75% { transform: rotate(1deg) translateY(0) } 100% { transform: rotate(-2.5deg) translateY(0) } }
    @keyframes cf1 { from { transform: translateX(0) } to { transform: translateX(-40px) } }
    @keyframes cf2 { from { transform: translateX(-32px) } to { transform: translateX(12px) } }
    @keyframes gl1 { from { transform: translate(0, 0) } to { transform: translate(10px, -5px) } }
    @keyframes gl2 { from { transform: translate(8px, -4px) } to { transform: translate(0, 0) } }
    @keyframes wing1 { 0%, 100% { opacity: 1 } 50% { opacity: .1 } }
    @keyframes wing2 { 0%, 100% { opacity: .1 } 50% { opacity: 1 } }
    @keyframes jump { 0% { transform: translate(0, 110px) rotate(0deg) } 15% { transform: translate(6px, 96px) rotate(-8deg) } 30% { transform: translate(12px, 88px) rotate(8deg) } 50% { transform: translate(20px, 92px) rotate(0deg) } 100% { transform: translate(40px, 130px) rotate(0deg); opacity: 0 } }
    .s1 { animation: s1 9s linear infinite }
    .s2 { animation: s2 11s linear infinite }
    .f1 { animation: f1 9s linear infinite }
    .f2 { animation: f2 11s linear infinite }
    .boat { animation: boat 3.4s ease-in-out infinite; transform-origin: 75px 118px; transform-box: fill-box }
    .cf1 { animation: cf1 28s linear infinite }
    .cf2 { animation: cf2 32s linear infinite }
    .gl1 { animation: gl1 2.6s ease-in-out infinite alternate }
    .gl2 { animation: gl2 3s ease-in-out infinite alternate }
    .wing1 { animation: wing1 .7s steps(1) infinite }
    .wing2 { animation: wing2 .7s steps(1) infinite }
    .jump { animation: jump 6s ease-in-out infinite }
  </style>
<rect x="0" y="0" width="320" height="18" fill="#C6ECF9"/><rect x="0" y="18" width="320" height="18" fill="#BFE9F8"/><rect x="0" y="36" width="320" height="18" fill="#B5E4F6"/><rect x="0" y="54" width="320" height="18" fill="#ABDFF4"/><g><rect x="248" y="24" width="36" height="36" fill="#FBD75E"/><rect x="256" y="32" width="20" height="20" fill="#FFEB9E"/><rect x="260" y="36" width="12" height="12" fill="#FFF6CC"/><rect x="242" y="39" width="3" height="6" fill="#FFE98A"/><rect x="287" y="39" width="3" height="6" fill="#FFE98A"/><rect x="263" y="17" width="6" height="3" fill="#FFE98A"/><rect x="263" y="64" width="6" height="3" fill="#FFE98A"/></g><g><rect x="28" y="38" width="20" height="4" fill="#A9DDF0"/><rect x="28" y="36" width="20" height="4" fill="#FFFFFF"/><rect x="31" y="34" width="14" height="3" fill="#FFFFFF"/><rect x="34" y="32" width="8" height="3" fill="#FFFFFF"/><rect x="150" y="46" width="20" height="4" fill="#A9DDF0"/><rect x="150" y="44" width="20" height="4" fill="#F7FDFF"/><rect x="153" y="42" width="14" height="3" fill="#F7FDFF"/><rect x="156" y="40" width="8" height="3" fill="#F7FDFF"/><rect x="96" y="22" width="20" height="4" fill="#A9DDF0"/><rect x="96" y="20" width="20" height="4" fill="#FFFFFF"/><rect x="99" y="18" width="14" height="3" fill="#FFFFFF"/><rect x="102" y="16" width="8" height="3" fill="#FFFFFF"/></g><g><rect x="118" y="24" width="6" height="2" class="gl1" fill="#4A6A92"/><rect x="121" y="22" width="2" height="2" class="wing1" fill="#4A6A92"/><rect x="119" y="26" width="2" height="2" class="wing2" fill="#4A6A92"/><rect x="140" y="18" width="6" height="2" class="gl2" fill="#4A6A92"/><rect x="143" y="16" width="2" height="2" class="wing2" fill="#4A6A92"/><rect x="141" y="20" width="2" height="2" class="wing1" fill="#4A6A92"/><rect x="206" y="28" width="6" height="2" class="gl2" fill="#4A6A92"/><rect x="209" y="26" width="2" height="2" class="wing1" fill="#4A6A92"/><rect x="207" y="30" width="2" height="2" class="wing2" fill="#4A6A92"/></g><rect x="228" y="60" width="26" height="8" fill="#E8D9B0"/><rect x="226" y="66" width="30" height="4" fill="#C9B88E"/><rect x="231" y="56" width="20" height="5" fill="#4C9B52"/><rect x="236" y="54" width="10" height="3" fill="#5FAE66"/><rect x="234" y="52" width="3" height="8" fill="#6A4A2A"/><rect x="236" y="48" width="2" height="2" fill="#4C9B52"/><rect x="238" y="46" width="4" height="2" fill="#5FAE66"/><rect x="0" y="68" width="320" height="20" class="s1" fill="#63C7EA"/><rect x="0" y="88" width="320" height="18" class="s2" fill="#54B9E2"/><rect x="0" y="106" width="320" height="17" class="s1" fill="#44ABD8"/><rect x="0" y="123" width="320" height="15" class="s2" fill="#369DCF"/><rect x="0" y="138" width="320" height="13" class="s1" fill="#2B8FC4"/><rect x="0" y="70" width="320" height="1" class="s1" fill="#D9F4FF"/><rect x="0" y="90" width="320" height="1" class="s2" fill="#C9EEFD"/><rect x="0" y="108" width="320" height="1" class="s1" fill="#C9EEFD"/><rect x="0" y="125" width="320" height="1" class="s2" fill="#B8E6FA"/><rect x="0" y="68" width="3" height="2" class="f1" fill="#FFFFFF"/><rect x="6" y="68" width="4" height="2" class="f1" fill="#FFFFFF"/><rect x="12" y="68" width="5" height="2" class="f1" fill="#FFFFFF"/><rect x="18" y="68" width="6" height="2" class="f1" fill="#FFFFFF"/><rect x="24" y="68" width="7" height="2" class="f1" fill="#FFFFFF"/><rect x="30" y="68" width="3" height="2" class="f1" fill="#FFFFFF"/><rect x="36" y="68" width="4" height="2" class="f1" fill="#FFFFFF"/><rect x="42" y="68" width="5" height="2" class="f1" fill="#FFFFFF"/><rect x="48" y="68" width="6" height="2" class="f1" fill="#FFFFFF"/><rect x="54" y="68" width="7" height="2" class="f1" fill="#FFFFFF"/><rect x="60" y="68" width="3" height="2" class="f1" fill="#FFFFFF"/><rect x="66" y="68" width="4" height="2" class="f1" fill="#FFFFFF"/><rect x="72" y="68" width="5" height="2" class="f1" fill="#FFFFFF"/><rect x="78" y="68" width="6" height="2" class="f1" fill="#FFFFFF"/><rect x="84" y="68" width="7" height="2" class="f1" fill="#FFFFFF"/><rect x="90" y="68" width="3" height="2" class="f1" fill="#FFFFFF"/><rect x="96" y="68" width="4" height="2" class="f1" fill="#FFFFFF"/><rect x="102" y="68" width="5" height="2" class="f1" fill="#FFFFFF"/><rect x="108" y="68" width="6" height="2" class="f1" fill="#FFFFFF"/><rect x="114" y="68" width="7" height="2" class="f1" fill="#FFFFFF"/><rect x="120" y="68" width="3" height="2" class="f1" fill="#FFFFFF"/><rect x="126" y="68" width="4" height="2" class="f1" fill="#FFFFFF"/><rect x="132" y="68" width="5" height="2" class="f1" fill="#FFFFFF"/><rect x="138" y="68" width="6" height="2" class="f1" fill="#FFFFFF"/><rect x="144" y="68" width="7" height="2" class="f1" fill="#FFFFFF"/><rect x="150" y="68" width="3" height="2" class="f1" fill="#FFFFFF"/><rect x="156" y="68" width="4" height="2" class="f1" fill="#FFFFFF"/><rect x="162" y="68" width="5" height="2" class="f1" fill="#FFFFFF"/><rect x="168" y="68" width="6" height="2" class="f1" fill="#FFFFFF"/><rect x="174" y="68" width="7" height="2" class="f1" fill="#FFFFFF"/><rect x="180" y="68" width="3" height="2" class="f1" fill="#FFFFFF"/><rect x="186" y="68" width="4" height="2" class="f1" fill="#FFFFFF"/><rect x="192" y="68" width="5" height="2" class="f1" fill="#FFFFFF"/><rect x="198" y="68" width="6" height="2" class="f1" fill="#FFFFFF"/><rect x="204" y="68" width="7" height="2" class="f1" fill="#FFFFFF"/><rect x="210" y="68" width="3" height="2" class="f1" fill="#FFFFFF"/><rect x="216" y="68" width="4" height="2" class="f1" fill="#FFFFFF"/><rect x="222" y="68" width="5" height="2" class="f1" fill="#FFFFFF"/><rect x="228" y="68" width="6" height="2" class="f1" fill="#FFFFFF"/><rect x="234" y="68" width="7" height="2" class="f1" fill="#FFFFFF"/><rect x="240" y="68" width="3" height="2" class="f1" fill="#FFFFFF"/><rect x="246" y="68" width="4" height="2" class="f1" fill="#FFFFFF"/><rect x="252" y="68" width="5" height="2" class="f1" fill="#FFFFFF"/><rect x="258" y="68" width="6" height="2" class="f1" fill="#FFFFFF"/><rect x="264" y="68" width="7" height="2" class="f1" fill="#FFFFFF"/><rect x="270" y="68" width="3" height="2" class="f1" fill="#FFFFFF"/><rect x="276" y="68" width="4" height="2" class="f1" fill="#FFFFFF"/><rect x="282" y="68" width="5" height="2" class="f1" fill="#FFFFFF"/><rect x="288" y="68" width="6" height="2" class="f1" fill="#FFFFFF"/><rect x="294" y="68" width="7" height="2" class="f1" fill="#FFFFFF"/><rect x="300" y="68" width="3" height="2" class="f1" fill="#FFFFFF"/><rect x="306" y="68" width="4" height="2" class="f1" fill="#FFFFFF"/><rect x="312" y="68" width="5" height="2" class="f1" fill="#FFFFFF"/><rect x="0" y="88" width="3" height="2" class="f2" fill="#FFFFFF"/><rect x="6" y="88" width="4" height="2" class="f2" fill="#FFFFFF"/><rect x="12" y="88" width="5" height="2" class="f2" fill="#FFFFFF"/><rect x="18" y="88" width="6" height="2" class="f2" fill="#FFFFFF"/><rect x="24" y="88" width="7" height="2" class="f2" fill="#FFFFFF"/><rect x="30" y="88" width="3" height="2" class="f2" fill="#FFFFFF"/><rect x="36" y="88" width="4" height="2" class="f2" fill="#FFFFFF"/><rect x="42" y="88" width="5" height="2" class="f2" fill="#FFFFFF"/><rect x="48" y="88" width="6" height="2" class="f2" fill="#FFFFFF"/><rect x="54" y="88" width="7" height="2" class="f2" fill="#FFFFFF"/><rect x="60" y="88" width="3" height="2" class="f2" fill="#FFFFFF"/><rect x="66" y="88" width="4" height="2" class="f2" fill="#FFFFFF"/><rect x="72" y="88" width="5" height="2" class="f2" fill="#FFFFFF"/><rect x="78" y="88" width="6" height="2" class="f2" fill="#FFFFFF"/><rect x="84" y="88" width="7" height="2" class="f2" fill="#FFFFFF"/><rect x="90" y="88" width="3" height="2" class="f2" fill="#FFFFFF"/><rect x="96" y="88" width="4" height="2" class="f2" fill="#FFFFFF"/><rect x="102" y="88" width="5" height="2" class="f2" fill="#FFFFFF"/><rect x="108" y="88" width="6" height="2" class="f2" fill="#FFFFFF"/><rect x="114" y="88" width="7" height="2" class="f2" fill="#FFFFFF"/><rect x="120" y="88" width="3" height="2" class="f2" fill="#FFFFFF"/><rect x="126" y="88" width="4" height="2" class="f2" fill="#FFFFFF"/><rect x="132" y="88" width="5" height="2" class="f2" fill="#FFFFFF"/><rect x="138" y="88" width="6" height="2" class="f2" fill="#FFFFFF"/><rect x="144" y="88" width="7" height="2" class="f2" fill="#FFFFFF"/><rect x="150" y="88" width="3" height="2" class="f2" fill="#FFFFFF"/><rect x="156" y="88" width="4" height="2" class="f2" fill="#FFFFFF"/><rect x="162" y="88" width="5" height="2" class="f2" fill="#FFFFFF"/><rect x="168" y="88" width="6" height="2" class="f2" fill="#FFFFFF"/><rect x="174" y="88" width="7" height="2" class="f2" fill="#FFFFFF"/><rect x="180" y="88" width="3" height="2" class="f2" fill="#FFFFFF"/><rect x="186" y="88" width="4" height="2" class="f2" fill="#FFFFFF"/><rect x="192" y="88" width="5" height="2" class="f2" fill="#FFFFFF"/><rect x="198" y="88" width="6" height="2" class="f2" fill="#FFFFFF"/><rect x="204" y="88" width="7" height="2" class="f2" fill="#FFFFFF"/><rect x="210" y="88" width="3" height="2" class="f2" fill="#FFFFFF"/><rect x="216" y="88" width="4" height="2" class="f2" fill="#FFFFFF"/><rect x="222" y="88" width="5" height="2" class="f2" fill="#FFFFFF"/><rect x="228" y="88" width="6" height="2" class="f2" fill="#FFFFFF"/><rect x="234" y="88" width="7" height="2" class="f2" fill="#FFFFFF"/><rect x="240" y="88" width="3" height="2" class="f2" fill="#FFFFFF"/><rect x="246" y="88" width="4" height="2" class="f2" fill="#FFFFFF"/><rect x="252" y="88" width="5" height="2" class="f2" fill="#FFFFFF"/><rect x="258" y="88" width="6" height="2" class="f2" fill="#FFFFFF"/><rect x="264" y="88" width="7" height="2" class="f2" fill="#FFFFFF"/><rect x="270" y="88" width="3" height="2" class="f2" fill="#FFFFFF"/><rect x="276" y="88" width="4" height="2" class="f2" fill="#FFFFFF"/><rect x="282" y="88" width="5" height="2" class="f2" fill="#FFFFFF"/><rect x="288" y="88" width="6" height="2" class="f2" fill="#FFFFFF"/><rect x="294" y="88" width="7" height="2" class="f2" fill="#FFFFFF"/><rect x="300" y="88" width="3" height="2" class="f2" fill="#FFFFFF"/><rect x="306" y="88" width="4" height="2" class="f2" fill="#FFFFFF"/><rect x="312" y="88" width="5" height="2" class="f2" fill="#FFFFFF"/><rect x="0" y="106" width="3" height="2" class="f1" fill="#FFFFFF"/><rect x="6" y="106" width="4" height="2" class="f1" fill="#FFFFFF"/><rect x="12" y="106" width="5" height="2" class="f1" fill="#FFFFFF"/><rect x="18" y="106" width="6" height="2" class="f1" fill="#FFFFFF"/><rect x="24" y="106" width="7" height="2" class="f1" fill="#FFFFFF"/><rect x="30" y="106" width="3" height="2" class="f1" fill="#FFFFFF"/><rect x="36" y="106" width="4" height="2" class="f1" fill="#FFFFFF"/><rect x="42" y="106" width="5" height="2" class="f1" fill="#FFFFFF"/><rect x="48" y="106" width="6" height="2" class="f1" fill="#FFFFFF"/><rect x="54" y="106" width="7" height="2" class="f1" fill="#FFFFFF"/><rect x="60" y="106" width="3" height="2" class="f1" fill="#FFFFFF"/><rect x="66" y="106" width="4" height="2" class="f1" fill="#FFFFFF"/><rect x="72" y="106" width="5" height="2" class="f1" fill="#FFFFFF"/><rect x="78" y="106" width="6" height="2" class="f1" fill="#FFFFFF"/><rect x="84" y="106" width="7" height="2" class="f1" fill="#FFFFFF"/><rect x="90" y="106" width="3" height="2" class="f1" fill="#FFFFFF"/><rect x="96" y="106" width="4" height="2" class="f1" fill="#FFFFFF"/><rect x="102" y="106" width="5" height="2" class="f1" fill="#FFFFFF"/><rect x="108" y="106" width="6" height="2" class="f1" fill="#FFFFFF"/><rect x="114" y="106" width="7" height="2" class="f1" fill="#FFFFFF"/><rect x="120" y="106" width="3" height="2" class="f1" fill="#FFFFFF"/><rect x="126" y="106" width="4" height="2" class="f1" fill="#FFFFFF"/><rect x="132" y="106" width="5" height="2" class="f1" fill="#FFFFFF"/><rect x="138" y="106" width="6" height="2" class="f1" fill="#FFFFFF"/><rect x="144" y="106" width="7" height="2" class="f1" fill="#FFFFFF"/><rect x="150" y="106" width="3" height="2" class="f1" fill="#FFFFFF"/><rect x="156" y="106" width="4" height="2" class="f1" fill="#FFFFFF"/><rect x="162" y="106" width="5" height="2" class="f1" fill="#FFFFFF"/><rect x="168" y="106" width="6" height="2" class="f1" fill="#FFFFFF"/><rect x="174" y="106" width="7" height="2" class="f1" fill="#FFFFFF"/><rect x="180" y="106" width="3" height="2" class="f1" fill="#FFFFFF"/><rect x="186" y="106" width="4" height="2" class="f1" fill="#FFFFFF"/><rect x="192" y="106" width="5" height="2" class="f1" fill="#FFFFFF"/><rect x="198" y="106" width="6" height="2" class="f1" fill="#FFFFFF"/><rect x="204" y="106" width="7" height="2" class="f1" fill="#FFFFFF"/><rect x="210" y="106" width="3" height="2" class="f1" fill="#FFFFFF"/><rect x="216" y="106" width="4" height="2" class="f1" fill="#FFFFFF"/><rect x="222" y="106" width="5" height="2" class="f1" fill="#FFFFFF"/><rect x="228" y="106" width="6" height="2" class="f1" fill="#FFFFFF"/><rect x="234" y="106" width="7" height="2" class="f1" fill="#FFFFFF"/><rect x="240" y="106" width="3" height="2" class="f1" fill="#FFFFFF"/><rect x="246" y="106" width="4" height="2" class="f1" fill="#FFFFFF"/><rect x="252" y="106" width="5" height="2" class="f1" fill="#FFFFFF"/><rect x="258" y="106" width="6" height="2" class="f1" fill="#FFFFFF"/><rect x="264" y="106" width="7" height="2" class="f1" fill="#FFFFFF"/><rect x="270" y="106" width="3" height="2" class="f1" fill="#FFFFFF"/><rect x="276" y="106" width="4" height="2" class="f1" fill="#FFFFFF"/><rect x="282" y="106" width="5" height="2" class="f1" fill="#FFFFFF"/><rect x="288" y="106" width="6" height="2" class="f1" fill="#FFFFFF"/><rect x="294" y="106" width="7" height="2" class="f1" fill="#FFFFFF"/><rect x="300" y="106" width="3" height="2" class="f1" fill="#FFFFFF"/><rect x="306" y="106" width="4" height="2" class="f1" fill="#FFFFFF"/><rect x="312" y="106" width="5" height="2" class="f1" fill="#FFFFFF"/><rect x="0" y="123" width="3" height="2" class="f2" fill="#FFFFFF"/><rect x="6" y="123" width="4" height="2" class="f2" fill="#FFFFFF"/><rect x="12" y="123" width="5" height="2" class="f2" fill="#FFFFFF"/><rect x="18" y="123" width="6" height="2" class="f2" fill="#FFFFFF"/><rect x="24" y="123" width="7" height="2" class="f2" fill="#FFFFFF"/><rect x="30" y="123" width="3" height="2" class="f2" fill="#FFFFFF"/><rect x="36" y="123" width="4" height="2" class="f2" fill="#FFFFFF"/><rect x="42" y="123" width="5" height="2" class="f2" fill="#FFFFFF"/><rect x="48" y="123" width="6" height="2" class="f2" fill="#FFFFFF"/><rect x="54" y="123" width="7" height="2" class="f2" fill="#FFFFFF"/><rect x="60" y="123" width="3" height="2" class="f2" fill="#FFFFFF"/><rect x="66" y="123" width="4" height="2" class="f2" fill="#FFFFFF"/><rect x="72" y="123" width="5" height="2" class="f2" fill="#FFFFFF"/><rect x="78" y="123" width="6" height="2" class="f2" fill="#FFFFFF"/><rect x="84" y="123" width="7" height="2" class="f2" fill="#FFFFFF"/><rect x="90" y="123" width="3" height="2" class="f2" fill="#FFFFFF"/><rect x="96" y="123" width="4" height="2" class="f2" fill="#FFFFFF"/><rect x="102" y="123" width="5" height="2" class="f2" fill="#FFFFFF"/><rect x="108" y="123" width="6" height="2" class="f2" fill="#FFFFFF"/><rect x="114" y="123" width="7" height="2" class="f2" fill="#FFFFFF"/><rect x="120" y="123" width="3" height="2" class="f2" fill="#FFFFFF"/><rect x="126" y="123" width="4" height="2" class="f2" fill="#FFFFFF"/><rect x="132" y="123" width="5" height="2" class="f2" fill="#FFFFFF"/><rect x="138" y="123" width="6" height="2" class="f2" fill="#FFFFFF"/><rect x="144" y="123" width="7" height="2" class="f2" fill="#FFFFFF"/><rect x="150" y="123" width="3" height="2" class="f2" fill="#FFFFFF"/><rect x="156" y="123" width="4" height="2" class="f2" fill="#FFFFFF"/><rect x="162" y="123" width="5" height="2" class="f2" fill="#FFFFFF"/><rect x="168" y="123" width="6" height="2" class="f2" fill="#FFFFFF"/><rect x="174" y="123" width="7" height="2" class="f2" fill="#FFFFFF"/><rect x="180" y="123" width="3" height="2" class="f2" fill="#FFFFFF"/><rect x="186" y="123" width="4" height="2" class="f2" fill="#FFFFFF"/><rect x="192" y="123" width="5" height="2" class="f2" fill="#FFFFFF"/><rect x="198" y="123" width="6" height="2" class="f2" fill="#FFFFFF"/><rect x="204" y="123" width="7" height="2" class="f2" fill="#FFFFFF"/><rect x="210" y="123" width="3" height="2" class="f2" fill="#FFFFFF"/><rect x="216" y="123" width="4" height="2" class="f2" fill="#FFFFFF"/><rect x="222" y="123" width="5" height="2" class="f2" fill="#FFFFFF"/><rect x="228" y="123" width="6" height="2" class="f2" fill="#FFFFFF"/><rect x="234" y="123" width="7" height="2" class="f2" fill="#FFFFFF"/><rect x="240" y="123" width="3" height="2" class="f2" fill="#FFFFFF"/><rect x="246" y="123" width="4" height="2" class="f2" fill="#FFFFFF"/><rect x="252" y="123" width="5" height="2" class="f2" fill="#FFFFFF"/><rect x="258" y="123" width="6" height="2" class="f2" fill="#FFFFFF"/><rect x="264" y="123" width="7" height="2" class="f2" fill="#FFFFFF"/><rect x="270" y="123" width="3" height="2" class="f2" fill="#FFFFFF"/><rect x="276" y="123" width="4" height="2" class="f2" fill="#FFFFFF"/><rect x="282" y="123" width="5" height="2" class="f2" fill="#FFFFFF"/><rect x="288" y="123" width="6" height="2" class="f2" fill="#FFFFFF"/><rect x="294" y="123" width="7" height="2" class="f2" fill="#FFFFFF"/><rect x="300" y="123" width="3" height="2" class="f2" fill="#FFFFFF"/><rect x="306" y="123" width="4" height="2" class="f2" fill="#FFFFFF"/><rect x="312" y="123" width="5" height="2" class="f2" fill="#FFFFFF"/><rect x="0" y="138" width="3" height="2" class="f1" fill="#FFFFFF"/><rect x="6" y="138" width="4" height="2" class="f1" fill="#FFFFFF"/><rect x="12" y="138" width="5" height="2" class="f1" fill="#FFFFFF"/><rect x="18" y="138" width="6" height="2" class="f1" fill="#FFFFFF"/><rect x="24" y="138" width="7" height="2" class="f1" fill="#FFFFFF"/><rect x="30" y="138" width="3" height="2" class="f1" fill="#FFFFFF"/><rect x="36" y="138" width="4" height="2" class="f1" fill="#FFFFFF"/><rect x="42" y="138" width="5" height="2" class="f1" fill="#FFFFFF"/><rect x="48" y="138" width="6" height="2" class="f1" fill="#FFFFFF"/><rect x="54" y="138" width="7" height="2" class="f1" fill="#FFFFFF"/><rect x="60" y="138" width="3" height="2" class="f1" fill="#FFFFFF"/><rect x="66" y="138" width="4" height="2" class="f1" fill="#FFFFFF"/><rect x="72" y="138" width="5" height="2" class="f1" fill="#FFFFFF"/><rect x="78" y="138" width="6" height="2" class="f1" fill="#FFFFFF"/><rect x="84" y="138" width="7" height="2" class="f1" fill="#FFFFFF"/><rect x="90" y="138" width="3" height="2" class="f1" fill="#FFFFFF"/><rect x="96" y="138" width="4" height="2" class="f1" fill="#FFFFFF"/><rect x="102" y="138" width="5" height="2" class="f1" fill="#FFFFFF"/><rect x="108" y="138" width="6" height="2" class="f1" fill="#FFFFFF"/><rect x="114" y="138" width="7" height="2" class="f1" fill="#FFFFFF"/><rect x="120" y="138" width="3" height="2" class="f1" fill="#FFFFFF"/><rect x="126" y="138" width="4" height="2" class="f1" fill="#FFFFFF"/><rect x="132" y="138" width="5" height="2" class="f1" fill="#FFFFFF"/><rect x="138" y="138" width="6" height="2" class="f1" fill="#FFFFFF"/><rect x="144" y="138" width="7" height="2" class="f1" fill="#FFFFFF"/><rect x="150" y="138" width="3" height="2" class="f1" fill="#FFFFFF"/><rect x="156" y="138" width="4" height="2" class="f1" fill="#FFFFFF"/><rect x="162" y="138" width="5" height="2" class="f1" fill="#FFFFFF"/><rect x="168" y="138" width="6" height="2" class="f1" fill="#FFFFFF"/><rect x="174" y="138" width="7" height="2" class="f1" fill="#FFFFFF"/><rect x="180" y="138" width="3" height="2" class="f1" fill="#FFFFFF"/><rect x="186" y="138" width="4" height="2" class="f1" fill="#FFFFFF"/><rect x="192" y="138" width="5" height="2" class="f1" fill="#FFFFFF"/><rect x="198" y="138" width="6" height="2" class="f1" fill="#FFFFFF"/><rect x="204" y="138" width="7" height="2" class="f1" fill="#FFFFFF"/><rect x="210" y="138" width="3" height="2" class="f1" fill="#FFFFFF"/><rect x="216" y="138" width="4" height="2" class="f1" fill="#FFFFFF"/><rect x="222" y="138" width="5" height="2" class="f1" fill="#FFFFFF"/><rect x="228" y="138" width="6" height="2" class="f1" fill="#FFFFFF"/><rect x="234" y="138" width="7" height="2" class="f1" fill="#FFFFFF"/><rect x="240" y="138" width="3" height="2" class="f1" fill="#FFFFFF"/><rect x="246" y="138" width="4" height="2" class="f1" fill="#FFFFFF"/><rect x="252" y="138" width="5" height="2" class="f1" fill="#FFFFFF"/><rect x="258" y="138" width="6" height="2" class="f1" fill="#FFFFFF"/><rect x="264" y="138" width="7" height="2" class="f1" fill="#FFFFFF"/><rect x="270" y="138" width="3" height="2" class="f1" fill="#FFFFFF"/><rect x="276" y="138" width="4" height="2" class="f1" fill="#FFFFFF"/><rect x="282" y="138" width="5" height="2" class="f1" fill="#FFFFFF"/><rect x="288" y="138" width="6" height="2" class="f1" fill="#FFFFFF"/><rect x="294" y="138" width="7" height="2" class="f1" fill="#FFFFFF"/><rect x="300" y="138" width="3" height="2" class="f1" fill="#FFFFFF"/><rect x="306" y="138" width="4" height="2" class="f1" fill="#FFFFFF"/><rect x="312" y="138" width="5" height="2" class="f1" fill="#FFFFFF"/><g class="jump"><rect x="64" y="0" width="5" height="2" fill="#7AC4E8"/><rect x="63" y="0" width="1" height="2" fill="#B8E6FA"/><rect x="69" y="0" width="2" height="2" class="splash" fill="#4A92B8"/></g><g class="boat"><rect x="62" y="116" width="26" height="3" fill="#7A4E2B"/><rect x="62" y="114" width="26" height="2" fill="#8A5E33"/><rect x="60" y="119" width="3" height="3" fill="#6A4023"/><rect x="87" y="119" width="3" height="3" fill="#6A4023"/><rect x="68" y="108" width="16" height="8" fill="#F7F3E8"/><rect x="68" y="112" width="16" height="2" fill="#EFE9DA"/><rect x="86" y="108" width="2" height="13" fill="#7A4E2B"/><rect x="86" y="106" width="2" height="3" fill="#8A5E33"/><rect x="88" y="106" width="3" height="2" class="wing2" fill="#C0482F"/><rect x="70" y="110" width="10" height="2" fill="#D9D2BE"/><rect x="74" y="107" width="2" height="8" fill="#B8B09A"/></g><g><rect x="2" y="150" width="40" height="30" fill="#8A7A5A"/><rect x="0" y="156" width="6" height="24" fill="#7A6A4C"/><rect x="38" y="156" width="8" height="24" fill="#7A6A4C"/><rect x="4" y="146" width="30" height="5" fill="#9B8B68"/><rect x="10" y="144" width="8" height="3" fill="#6FAE59"/><rect x="18" y="143" width="6" height="2" fill="#5E9B4C"/><rect x="8" y="148" width="3" height="2" fill="#B8D8B0"/></g>
</svg>