<svg xmlns="http://www.w3.org/2000/svg" viewBox="0 0 320 180" width="320" height="180" shape-rendering="crispEdges">
  <rect x="0" y="0" width="320" height="180" fill="#F5F2F7"/>
  <rect x="150" y="20" width="20" height="10" fill="#2E7D5B"/>
  <rect x="190" y="20" width="20" height="10" fill="#2E7D5B"/>
  <rect x="140" y="30" width="80" height="10" fill="#4CAF7D"/>
  <rect x="140" y="40" width="20" height="10" fill="#4CAF7D"/>
  <rect x="160" y="40" width="20" height="10" fill="#2E2A38"/>
  <rect x="180" y="40" width="20" height="10" fill="#4CAF7D"/>
  <rect x="200" y="40" width="20" height="10" fill="#2E2A38"/>
  <rect x="110" y="50" width="10" height="10" fill="#A8E6C4"/>
  <rect x="140" y="50" width="80" height="10" fill="#4CAF7D"/>
  <rect x="100" y="60" width="30" height="10" fill="#A8E6C4"/>
  <rect x="150" y="60" width="60" height="10" fill="#4CAF7D"/>
  <rect x="230" y="60" width="20" height="10" fill="#FF9F43"/>
  <rect x="90" y="70" width="40" height="10" fill="#A8E6C4"/>
  <rect x="170" y="70" width="20" height="10" fill="#4CAF7D"/>
  <rect x="100" y="80" width="30" height="10" fill="#A8E6C4"/>
  <rect x="170" y="80" width="20" height="10" fill="#4CAF7D"/>
  <rect x="110" y="90" width="10" height="10" fill="#A8E6C4"/>
  <rect x="140" y="90" width="60" height="10" fill="#4CAF7D"/>
  <rect x="110" y="100" width="80" height="10" fill="#4CAF7D"/>
  <rect x="110" y="110" width="40" height="10" fill="#4CAF7D"/>
  <rect x="170" y="110" width="40" height="10" fill="#4CAF7D"/>
  <rect x="100" y="120" width="120" height="10" fill="#4CAF7D"/>
  <rect x="130" y="130" width="30" height="10" fill="#4CAF7D"/>
  <rect x="180" y="130" width="50" height="10" fill="#4CAF7D"/>
  <rect x="190" y="140" width="30" height="10" fill="#4CAF7D"/>
  <rect x="200" y="150" width="10" height="10" fill="#4CAF7D"/>
</svg>
