<svg xmlns="http://www.w3.org/2000/svg" viewBox="0 0 320 180" width="320" height="180" shape-rendering="crispEdges">
  <rect x="0" y="0" width="320" height="180" fill="#1A1626"/>
  <rect x="140" y="20" width="40" height="10" fill="#C99A6E"/>
  <rect x="140" y="30" width="40" height="10" fill="#C99A6E"/>
  <rect x="150" y="40" width="20" height="10" fill="#C99A6E"/>
  <rect x="230" y="40" width="10" height="10" fill="#FFE08A"/>
  <rect x="150" y="50" width="20" height="10" fill="#C99A6E"/>
  <rect x="150" y="60" width="20" height="10" fill="#C99A6E"/>
  <rect x="120" y="70" width="60" height="10" fill="#C99A6E"/>
  <rect x="110" y="80" width="100" height="10" fill="#C99A6E"/>
  <rect x="110" y="90" width="20" height="10" fill="#5FB3D9"/>
  <rect x="130" y="90" width="20" height="10" fill="#FFE08A"/>
  <rect x="150" y="90" width="60" height="10" fill="#5FB3D9"/>
  <rect x="110" y="100" width="100" height="10" fill="#5FB3D9"/>
  <rect x="110" y="110" width="100" height="10" fill="#5FB3D9"/>
  <rect x="220" y="110" width="10" height="10" fill="#FFE08A"/>
  <rect x="110" y="120" width="100" height="10" fill="#9F7BEA"/>
  <rect x="110" y="130" width="100" height="10" fill="#9F7BEA"/>
  <rect x="110" y="140" width="100" height="10" fill="#9F7BEA"/>
  <rect x="120" y="150" width="80" height="10" fill="#5FB3D9"/>
</svg>
