<svg xmlns="http://www.w3.org/2000/svg" viewBox="0 0 320 180" width="320" height="180" shape-rendering="crispEdges">
  <rect x="0" y="0" width="320" height="180" fill="#F5F2F7"/>
  <rect x="60" y="10" width="10" height="10" fill="#6A5A99"/>
  <rect x="140" y="30" width="20" height="10" fill="#FFE9A8"/>
  <rect x="130" y="40" width="40" height="10" fill="#FFE9A8"/>
  <rect x="120" y="50" width="10" height="10" fill="#FFE9A8"/>
  <rect x="130" y="50" width="10" height="10" fill="#E8C87E"/>
  <rect x="140" y="50" width="40" height="10" fill="#FFE9A8"/>
  <rect x="120" y="60" width="60" height="10" fill="#FFE9A8"/>
  <rect x="120" y="70" width="40" height="10" fill="#FFE9A8"/>
  <rect x="160" y="70" width="10" height="10" fill="#E8C87E"/>
  <rect x="170" y="70" width="10" height="10" fill="#FFE9A8"/>
  <rect x="130" y="80" width="40" height="10" fill="#FFE9A8"/>
  <rect x="260" y="80" width="10" height="10" fill="#6A5A99"/>
  <rect x="140" y="90" width="20" height="10" fill="#FFE9A8"/>
  <rect x="40" y="100" width="10" height="10" fill="#6A5A99"/>
  <rect x="90" y="110" width="10" height="10" fill="#6A5A99"/>
</svg>
