<svg xmlns="http://www.w3.org/2000/svg" viewBox="0 0 320 180" width="320" height="180" shape-rendering="crispEdges">
  <rect x="0" y="0" width="320" height="180" fill="#F5F2F7"/>
  <rect x="40" y="20" width="240" height="10" fill="#E8505B"/>
  <rect x="40" y="30" width="10" height="10" fill="#E8505B"/>
  <rect x="50" y="30" width="100" height="10" fill="#FFF8E7"/>
  <rect x="150" y="30" width="20" height="10" fill="#C73A45"/>
  <rect x="170" y="30" width="100" height="10" fill="#FFF8E7"/>
  <rect x="270" y="30" width="10" height="10" fill="#E8505B"/>
  <rect x="40" y="40" width="10" height="10" fill="#E8505B"/>
  <rect x="50" y="40" width="100" height="10" fill="#FFF8E7"/>
  <rect x="150" y="40" width="20" height="10" fill="#C73A45"/>
  <rect x="170" y="40" width="100" height="10" fill="#FFF8E7"/>
  <rect x="270" y="40" width="10" height="10" fill="#E8505B"/>
  <rect x="40" y="50" width="10" height="10" fill="#E8505B"/>
  <rect x="50" y="50" width="100" height="10" fill="#FFF8E7"/>
  <rect x="150" y="50" width="20" height="10" fill="#C73A45"/>
  <rect x="170" y="50" width="100" height="10" fill="#FFF8E7"/>
  <rect x="270" y="50" width="10" height="10" fill="#E8505B"/>
  <rect x="40" y="60" width="10" height="10" fill="#E8505B"/>
  <rect x="50" y="60" width="50" height="10" fill="#FFF8E7"/>
  <rect x="100" y="60" width="20" height="10" fill="#B08D57"/>
  <rect x="120" y="60" width="30" height="10" fill="#FFF8E7"/>
  <rect x="150" y="60" width="20" height="10" fill="#C73A45"/>
  <rect x="170" y="60" width="40" height="10" fill="#FFF8E7"/>
  <rect x="210" y="60" width="20" height="10" fill="#B08D57"/>
  <rect x="230" y="60" width="40" height="10" fill="#FFF8E7"/>
  <rect x="270" y="60" width="10" height="10" fill="#E8505B"/>
  <rect x="40" y="70" width="10" height="10" fill="#E8505B"/>
  <rect x="50" y="70" width="100" height="10" fill="#FFF8E7"/>
  <rect x="150" y="70" width="20" height="10" fill="#C73A45"/>
  <rect x="170" y="70" width="100" height="10" fill="#FFF8E7"/>
  <rect x="270" y="70" width="10" height="10" fill="#E8505B"/>
  <rect x="40" y="80" width="10" height="10" fill="#E8505B"/>
  <rect x="50" y="80" width="100" height="10" fill="#FFF8E7"/>
  <rect x="150" y="80" width="20" height="10" fill="#C73A45"/>
  <rect x="170" y="80" width="100" height="10" fill="#FFF8E7"/>
  <rect x="270" y="80" width="10" height="10" fill="#E8505B"/>
  <rect x="40" y="90" width="10" height="10" fill="#E8505B"/>
  <rect x="50" y="90" width="100" height="10" fill="#FFF8E7"/>
  <rect x="150" y="90" width="20" height="10" fill="#C73A45"/>
  <rect x="170" y="90" width="100" height="10" fill="#FFF8E7"/>
  <rect x="270" y="90" width="10" height="10" fill="#E8505B"/>
  <rect x="40" y="100" width="10" height="10" fill="#E8505B"/>
  <rect x="50" y="100" width="40" height="10" fill="#FFF8E7"/>
  <rect x="90" y="100" width="20" height="10" fill="#B08D57"/>
  <rect x="110" y="100" width="40" height="10" fill="#FFF8E7"/>
  <rect x="150" y="100" width="20" height="10" fill="#C73A45"/>
  <rect x="170" y="100" width="70" height="10" fill="#FFF8E7"/>
  <rect x="240" y="100" width="20" height="10" fill="#B08D57"/>
  <rect x="260" y="100" width="10" height="10" fill="#FFF8E7"/>
  <rect x="270" y="100" width="10" height="10" fill="#E8505B"/>
  <rect x="40" y="110" width="10" height="10" fill="#E8505B"/>
  <rect x="50" y="110" width="100" height="10" fill="#FFF8E7"/>
  <rect x="150" y="110" width="20" height="10" fill="#C73A45"/>
  <rect x="170" y="110" width="100" height="10" fill="#FFF8E7"/>
  <rect x="270" y="110" width="10" height="10" fill="#E8505B"/>
  <rect x="40" y="120" width="10" height="10" fill="#E8505B"/>
  <rect x="50" y="120" width="100" height="10" fill="#FFF8E7"/>
  <rect x="150" y="120" width="20" height="10" fill="#C73A45"/>
  <rect x="170" y="120" width="100" height="10" fill="#FFF8E7"/>
  <rect x="270" y="120" width="10" height="10" fill="#E8505B"/>
  <rect x="40" y="130" width="10" height="10" fill="#E8505B"/>
  <rect x="50" y="130" width="100" height="10" fill="#FFF8E7"/>
  <rect x="150" y="130" width="20" height="10" fill="#C73A45"/>
  <rect x="170" y="130" width="100" height="10" fill="#FFF8E7"/>
  <rect x="270" y="130" width="10" height="10" fill="#E8505B"/>
  <rect x="40" y="140" width="10" height="10" fill="#E8505B"/>
  <rect x="50" y="140" width="100" height="10" fill="#FFF8E7"/>
  <rect x="150" y="140" width="20" height="10" fill="#C73A45"/>
  <rect x="170" y="140" width="100" height="10" fill="#FFF8E7"/>
  <rect x="270" y="140" width="10" height="10" fill="#E8505B"/>
  <rect x="40" y="150" width="240" height="10" fill="#E8505B"/>
</svg>
