<svg xmlns="http://www.w3.org/2000/svg" viewBox="0 0 320 180" width="320" height="180" shape-rendering="crispEdges">
  <rect x="0" y="0" width="320" height="180" fill="#1A1626"/>
  <rect x="140" y="10" width="20" height="10" fill="#FF6B81"/>
  <rect x="140" y="20" width="20" height="10" fill="#2A2440"/>
  <rect x="110" y="30" width="100" height="10" fill="#2A2440"/>
  <rect x="110" y="40" width="100" height="10" fill="#2A2440"/>
  <rect x="110" y="50" width="40" height="10" fill="#2A2440"/>
  <rect x="150" y="50" width="20" height="10" fill="#FFD166"/>
  <rect x="170" y="50" width="40" height="10" fill="#2A2440"/>
  <rect x="110" y="60" width="100" height="10" fill="#2A2440"/>
  <rect x="110" y="70" width="40" height="10" fill="#2A2440"/>
  <rect x="150" y="70" width="20" height="10" fill="#FF6B81"/>
  <rect x="170" y="70" width="40" height="10" fill="#2A2440"/>
  <rect x="110" y="80" width="100" height="10" fill="#2A2440"/>
  <rect x="140" y="90" width="40" height="10" fill="#2A2440"/>
  <rect x="90" y="100" width="140" height="10" fill="#2A2440"/>
  <rect x="90" y="110" width="50" height="10" fill="#2A2440"/>
  <rect x="140" y="110" width="60" height="10" fill="#0F0B1E"/>
  <rect x="200" y="110" width="30" height="10" fill="#2A2440"/>
  <rect x="90" y="120" width="50" height="10" fill="#2A2440"/>
  <rect x="140" y="120" width="60" height="10" fill="#0F0B1E"/>
  <rect x="200" y="120" width="30" height="10" fill="#2A2440"/>
  <rect x="90" y="130" width="50" height="10" fill="#2A2440"/>
  <rect x="140" y="130" width="60" height="10" fill="#0F0B1E"/>
  <rect x="200" y="130" width="30" height="10" fill="#2A2440"/>
  <rect x="90" y="140" width="140" height="10" fill="#2A2440"/>
  <rect x="120" y="150" width="80" height="10" fill="#2A2440"/>
</svg>
